<?xml version="1.0" encoding="UTF-8"?>
<svg xmlns="http://www.w3.org/2000/svg" width="1200" height="630" viewBox="0 0 1200 630">
  <defs>
    <radialGradient id="g" cx="35%" cy="35%" r="80%">
      <stop offset="0%" stop-color="#0e1430"/>
      <stop offset="55%" stop-color="#070915"/>
      <stop offset="100%" stop-color="#020208"/>
    </radialGradient>
    <filter id="glow" x="-30%" y="-30%" width="160%" height="160%">
      <feGaussianBlur stdDeviation="7" result="b"/>
      <feMerge>
        <feMergeNode in="b"/>
        <feMergeNode in="SourceGraphic"/>
      </feMerge>
    </filter>
  </defs>
  <rect width="1200" height="630" fill="url(#g)"/>
  <g opacity="0.85">
    <circle cx="108" cy="94" r="1.3" fill="#d8d8ff"/>
    <circle cx="240" cy="160" r="1.1" fill="#c9c9ff"/>
    <circle cx="420" cy="86" r="1.2" fill="#ffffff"/>
    <circle cx="720" cy="120" r="1.4" fill="#ffffff"/>
    <circle cx="1120" cy="170" r="1.2" fill="#ffffff"/>
  </g>

  <text x="600" y="110" text-anchor="middle" font-family="Georgia, 'Times New Roman', serif"
        font-size="64" fill="#d7deff" opacity="0.92" filter="url(#glow)">Pedro Aired??!!??</text>

  <g filter="url(#glow)" opacity="0.95">
    <rect x="240" y="160" width="720" height="140" rx="26" fill="#05060c" stroke="#2b3150" stroke-width="3"/>
    <text x="600" y="250" text-anchor="middle" font-family="ui-monospace, Menlo, Monaco, 'Courier New', monospace"
          font-size="84" fill="#d7deff" opacity="0.9">06:13:09</text>
  </g>

  <!-- tiny rocket hint -->
  <g transform="translate(600 470) scale(0.55)" opacity="0.9">
    <path d="M0,-210
             C60,-190 92,-120 92,-40
             L92,90
             C92,145 52,185 0,205
             C-52,185 -92,145 -92,90
             L-92,-40
             C-92,-120 -60,-190 0,-210 Z" fill="#6c7183" stroke="#0a0d16" stroke-width="6"/>
    <circle cx="0" cy="-55" r="46" fill="#0b1222" stroke="#d7deff" stroke-opacity="0.35" stroke-width="8"/>
    <rect x="-62" y="-8" width="124" height="92" rx="18" fill="#0a0c12" stroke="#242a3d" stroke-width="6"/>
    <circle cx="-20" cy="25" r="8" fill="#c9c9ff" opacity="0.7"/>
    <circle cx="20" cy="25" r="8" fill="#c9c9ff" opacity="0.7"/>
    <path d="M-28,62 C-8,46 8,46 28,62" fill="none" stroke="#c9c9ff" stroke-opacity="0.55" stroke-width="8" stroke-linecap="round"/>
  </g>

  <text x="600" y="595" text-anchor="middle" font-family="ui-monospace, Menlo, Monaco, 'Courier New', monospace"
        font-size="22" fill="#aab0d1" opacity="0.75">Tap to open the countdown.</text>
</svg>
