<?xml version="1.0" encoding="UTF-8"?>
<svg xmlns="http://www.w3.org/2000/svg" width="1200" height="675" viewBox="0 0 1200 675">
  <defs>
    <radialGradient id="g" cx="35%" cy="35%" r="80%">
      <stop offset="0%" stop-color="#0e1430"/>
      <stop offset="55%" stop-color="#070915"/>
      <stop offset="100%" stop-color="#020208"/>
    </radialGradient>
    <linearGradient id="h" x1="0" y1="0" x2="1" y2="1">
      <stop offset="0%" stop-color="#a2a7b7" stop-opacity="0.95"/>
      <stop offset="60%" stop-color="#4f5566" stop-opacity="0.95"/>
      <stop offset="100%" stop-color="#1c1f2a" stop-opacity="0.95"/>
    </linearGradient>
    <linearGradient id="flame" x1="0" y1="0" x2="0" y2="1">
      <stop offset="0%" stop-color="#ffd9a6" stop-opacity="0.9"/>
      <stop offset="60%" stop-color="#ff7a7a" stop-opacity="0.35"/>
      <stop offset="100%" stop-color="#000000" stop-opacity="0"/>
    </linearGradient>
    <filter id="softGlow" x="-30%" y="-30%" width="160%" height="160%">
      <feGaussianBlur stdDeviation="6" result="b"/>
      <feMerge>
        <feMergeNode in="b"/>
        <feMergeNode in="SourceGraphic"/>
      </feMerge>
    </filter>
    <filter id="grain" x="-20%" y="-20%" width="140%" height="140%">
      <feTurbulence type="fractalNoise" baseFrequency="0.9" numOctaves="2" stitchTiles="stitch" />
      <feColorMatrix type="matrix" values="
        0 0 0 0 0
        0 0 0 0 0
        0 0 0 0 0
        0 0 0 .18 0" />
    </filter>
  </defs>

  <!-- night sky -->
  <rect width="1200" height="675" fill="url(#g)"/>
  <g opacity="0.75">
    <circle cx="108" cy="94" r="1.3" fill="#d8d8ff"/>
    <circle cx="240" cy="160" r="1.1" fill="#c9c9ff"/>
    <circle cx="420" cy="86" r="1.2" fill="#ffffff"/>
    <circle cx="560" cy="210" r="1.0" fill="#d8d8ff"/>
    <circle cx="720" cy="120" r="1.4" fill="#ffffff"/>
    <circle cx="870" cy="190" r="1.0" fill="#c9c9ff"/>
    <circle cx="990" cy="90" r="1.1" fill="#d8d8ff"/>
    <circle cx="1120" cy="170" r="1.2" fill="#ffffff"/>
    <circle cx="1040" cy="280" r="1.0" fill="#d8d8ff"/>
    <circle cx="180" cy="290" r="1.0" fill="#ffffff"/>
    <circle cx="330" cy="300" r="1.2" fill="#c9c9ff"/>
    <circle cx="600" cy="320" r="1.0" fill="#ffffff"/>
    <circle cx="760" cy="290" r="1.1" fill="#d8d8ff"/>
  </g>

  <!-- moon -->
  <g filter="url(#softGlow)" opacity="0.7">
    <circle cx="980" cy="160" r="76" fill="#aeb5d6"/>
    <circle cx="955" cy="140" r="72" fill="#060815"/>
  </g>

  <!-- ground haze -->
  <path d="M0,520 C180,490 330,560 520,540 C710,520 860,600 1200,560 L1200,675 L0,675 Z" fill="#04040b" opacity="0.95"/>
  <path d="M0,540 C220,520 380,600 560,575 C740,552 880,625 1200,590 L1200,675 L0,675 Z" fill="#090914" opacity="0.65"/>

  <!-- sad rocket -->
  <g id="rocket" transform="translate(600 420)" filter="url(#softGlow)">
    <!-- smoke shadow -->
    <ellipse cx="0" cy="165" rx="180" ry="42" fill="#000000" opacity="0.45"/>
    <!-- body -->
    <path d="M0,-210
             C60,-190 92,-120 92,-40
             L92,90
             C92,145 52,185 0,205
             C-52,185 -92,145 -92,90
             L-92,-40
             C-92,-120 -60,-190 0,-210 Z" fill="url(#h)" stroke="#0a0d16" stroke-width="4"/>
    <!-- seam -->
    <path d="M0,-205 L0,202" stroke="#0c1020" stroke-width="2" opacity="0.55"/>

    <!-- window -->
    <circle cx="0" cy="-55" r="46" fill="#0b1222" stroke="#d7deff" stroke-opacity="0.35" stroke-width="6"/>
    <circle cx="-12" cy="-68" r="10" fill="#d7deff" opacity="0.22"/>
    <circle cx="12" cy="-40" r="6" fill="#d7deff" opacity="0.12"/>

    <!-- sad face panel -->
    <g opacity="0.95">
      <rect x="-62" y="-8" width="124" height="92" rx="18" fill="#0a0c12" stroke="#242a3d" stroke-width="3"/>
      <circle cx="-20" cy="25" r="6" fill="#c9c9ff" opacity="0.7"/>
      <circle cx="20" cy="25" r="6" fill="#c9c9ff" opacity="0.7"/>
      <path d="M-28,62 C-8,46 8,46 28,62" fill="none" stroke="#c9c9ff" stroke-opacity="0.55" stroke-width="5" stroke-linecap="round"/>
      <!-- tiny tear -->
      <path d="M24,34 C30,40 30,48 24,54 C18,48 18,40 24,34 Z" fill="#8db0ff" opacity="0.35"/>
    </g>

    <!-- fins -->
    <path d="M-92,40 C-150,58 -168,118 -136,165 C-116,194 -70,204 -50,198 L-50,150 C-82,136 -92,100 -92,74 Z" fill="#2a2f3f" stroke="#0a0d16" stroke-width="4"/>
    <path d="M92,40 C150,58 168,118 136,165 C116,194 70,204 50,198 L50,150 C82,136 92,100 92,74 Z" fill="#2a2f3f" stroke="#0a0d16" stroke-width="4"/>

    <!-- engine -->
    <path d="M-48,205 L48,205 L28,252 Q0,270 -28,252 Z" fill="#171a25" stroke="#0a0d16" stroke-width="4"/>
    <!-- faint flame (for preview vibe) -->
    <path d="M0,270
             C32,300 22,360 0,400
             C-22,360 -32,300 0,270 Z" fill="url(#flame)" opacity="0.55"/>
  </g>

  <!-- grain overlay -->
  <rect width="1200" height="675" filter="url(#grain)" opacity="0.55"/>
</svg>
